<mxfile host="app.diagrams.net" modified="2023-10-14T22:17:41.167Z" agent="Mozilla/5.0 (Windows NT 10.0; Win64; x64) AppleWebKit/537.36 (KHTML, like Gecko) Chrome/118.0.0.0 Safari/537.36" etag="fsKOB8DBqrqgd_4SnwxU" version="22.0.4" type="device">
  <diagram name="Page-1" id="WmiKJqS-o9Iv0EMLYS_g">
    <mxGraphModel dx="1434" dy="758" grid="1" gridSize="10" guides="1" tooltips="1" connect="1" arrows="1" fold="1" page="1" pageScale="1" pageWidth="850" pageHeight="1100" math="0" shadow="0">
      <root>
        <mxCell id="0" />
        <mxCell id="1" parent="0" />
        <mxCell id="1rsADce410mVApmi49b5-1" value="DB" style="shape=cylinder3;whiteSpace=wrap;html=1;boundedLbl=1;backgroundOutline=1;size=15;" parent="1" vertex="1">
          <mxGeometry x="620" y="310" width="60" height="80" as="geometry" />
        </mxCell>
        <mxCell id="1rsADce410mVApmi49b5-2" value="Git" style="ellipse;whiteSpace=wrap;html=1;" parent="1" vertex="1">
          <mxGeometry x="240" y="150" width="120" height="80" as="geometry" />
        </mxCell>
        <mxCell id="1rsADce410mVApmi49b5-4" value="Jenkins" style="ellipse;whiteSpace=wrap;html=1;aspect=fixed;" parent="1" vertex="1">
          <mxGeometry x="440" y="150" width="80" height="80" as="geometry" />
        </mxCell>
        <mxCell id="1rsADce410mVApmi49b5-10" style="edgeStyle=orthogonalEdgeStyle;rounded=0;orthogonalLoop=1;jettySize=auto;html=1;" parent="1" source="1rsADce410mVApmi49b5-7" target="1rsADce410mVApmi49b5-1" edge="1">
          <mxGeometry relative="1" as="geometry" />
        </mxCell>
        <mxCell id="1rsADce410mVApmi49b5-7" value="Backend" style="ellipse;whiteSpace=wrap;html=1;aspect=fixed;" parent="1" vertex="1">
          <mxGeometry x="440" y="310" width="80" height="80" as="geometry" />
        </mxCell>
        <mxCell id="1rsADce410mVApmi49b5-9" style="edgeStyle=orthogonalEdgeStyle;rounded=0;orthogonalLoop=1;jettySize=auto;html=1;entryX=0;entryY=0.5;entryDx=0;entryDy=0;" parent="1" source="1rsADce410mVApmi49b5-8" target="GGZAXLC4v9kPPZP6drcF-3" edge="1">
          <mxGeometry relative="1" as="geometry" />
        </mxCell>
        <mxCell id="1rsADce410mVApmi49b5-8" value="Frontend" style="ellipse;whiteSpace=wrap;html=1;aspect=fixed;" parent="1" vertex="1">
          <mxGeometry x="90" y="310" width="80" height="80" as="geometry" />
        </mxCell>
        <mxCell id="GGZAXLC4v9kPPZP6drcF-4" style="edgeStyle=orthogonalEdgeStyle;rounded=0;orthogonalLoop=1;jettySize=auto;html=1;" edge="1" parent="1" source="GGZAXLC4v9kPPZP6drcF-3" target="1rsADce410mVApmi49b5-7">
          <mxGeometry relative="1" as="geometry" />
        </mxCell>
        <mxCell id="GGZAXLC4v9kPPZP6drcF-3" value="RESTful API" style="ellipse;whiteSpace=wrap;html=1;aspect=fixed;" vertex="1" parent="1">
          <mxGeometry x="270" y="310" width="80" height="80" as="geometry" />
        </mxCell>
      </root>
    </mxGraphModel>
  </diagram>
</mxfile>
